# AST/ASF file generated using VICON BodyLanguage
# -----------------------------------------------
:version 1.10
:name VICON
:units
  mass 1.0
  length 0.45
  angle deg
:documentation
   .ast/.asf automatically generated from VICON data using
   VICON BodyBuilder and BodyLanguage model FoxedUp or BRILLIANT.MOD
:root
   order TX TY TZ RX RY RZ
   axis XYZ
   position 0 0 0  
   orientation 0 0 0 
:bonedata
  begin
     id 1 
     name lhipjoint
     direction 0.630082 -0.636569 0.44472 
     length 2.82754 
     axis 0 0 0  XYZ
  end
  begin
     id 2 
     name lfemur
     direction 0.34202 -0.939693 0  
     length 7.26371  
     axis 0 0 20  XYZ
    dof rx ry rz
    limits (-160.0 20.0)
           (-70.0 70.0)
           (-60.0 70.0)
  end
  begin
     id 3 
     name ltibia
     direction 0.34202 -0.939693 0   
     length 7.88616   
     axis 0 0 20   XYZ
    dof rx
    limits (-10.0 170.0)
  end
  begin
     id 4 
     name lfoot
     direction 0.0603448 -0.165796 0.984312   
     length 1.77861   
     axis -90 7.62852e-016 20   XYZ
    dof rx rz
    limits (-45.0 90.0)
           (-70.0 20.0)
  end
  begin
     id 5 
     name ltoes
     direction 1.53577e-011 -4.21876e-011 1   
     length 0.902235   
     axis -90 7.62852e-016 20   XYZ
    dof rx
    limits (-90.0 20.0)
  end
  begin
     id 6 
     name rhipjoint
     direction -0.656778 -0.61817 0.431866   
     length 2.9117  
     axis 0 0 0  XYZ 
  end
  begin
     id 7 
     name rfemur
     direction -0.34202 -0.939693 0   
     length 6.81603   
     axis 0 0 -20   XYZ
    dof rx ry rz
    limits (-160.0 20.0)
           (-70.0 70.0)
           (-70.0 60.0)
  end
  begin
     id 8 
     name rtibia
     direction -0.34202 -0.939693 0   
     length 8.05997   
     axis 0 0 -20   XYZ
    dof rx
    limits (-10.0 170.0)
 end
 begin
     id 9 
     name rfoot
     direction -0.0862404 -0.236944 0.967688   
     length 1.84899  
     axis -90 -7.62852e-016 -20   XYZ
    dof rx rz
    limits (-45.0 90.0)
           (-20.0 70.0)
  end
  begin
     id 10 
     name rtoes
     direction -1.53561e-011 -4.21798e-011 1   
     length 0.931579   
     axis -90 -7.62852e-016 -20   XYZ
    dof rx
    limits (-90.0 20.0)
  end
  begin
     id 11 
     name lowerback
     direction -0.0110203 0.991769 -0.127564   
     length 2.05686   
     axis 0 0 0   XYZ
    dof rx ry rz
    limits (-20.0 45.0)
           (-30.0 30.0)
           (-30.0 30.0)
  end
  begin
     id 12 
     name upperback
     direction 0.0109719 0.99993 -0.00432479   
     length 2.06234   
     axis 0 0 0   XYZ
    dof rx ry rz
    limits (-20.0 45.0)
           (-30.0 30.0)
           (-30.0 30.0)
  end
  begin
     id 13 
     name thorax
     direction 0.0173308 0.998351 0.0547306   
     length 2.09856   
     axis 0 0 0   XYZ
    dof rx ry rz
    limits (-20.0 45.0)
           (-30.0 30.0)
           (-30.0 30.0)
  end
  begin
     id 14 
     name lowerneck
     direction -0.0311736 0.989033 0.144366   
     length 1.98151   
     axis 0 0 0   XYZ
    dof rx ry rz
    limits (-20.0 45.0)
           (-30.0 30.0)
           (-30.0 30.0)
  end
  begin
     id 15 
     name upperneck
     direction 0.0421057 0.975772 -0.214698   
     length 2.01457   
     axis 0 0 0   XYZ
    dof rx ry rz
    limits (-20.0 45.0)
           (-30.0 30.0)
           (-30.0 30.0)
  end
  begin
     id 16
     name head
     direction 0.0136911 0.995958 -0.0887718  
     length 2.03562  
     axis 0 0 0   XYZ
    dof rx ry rz
    limits (-20.0 45.0)
           (-30.0 30.0)
           (-30.0 30.0)
  end
  begin
     id 17 
     name lclavicle
     direction 0.915335 0.396201 0.0720134  
     length 4.16217  
     axis 0 0 0   XYZ
    dof ry rz
    limits (-20.0 10.0)
           (0.0 20.0)
  end
  begin
     id 18 
     name lhumerus
     direction 1 -4.48965e-011 6.383e-018   
     length 4.93042   
     axis -180 -30 -90   XYZ
    dof rx ry rz
    limits (-60.0 90.0)
           (-90.0 90.0)
           (-90.0 90.0)
  end
  begin
     id 19
     name lradius
     direction 1 -4.48972e-011 8.8689e-027   
     length 3.68177   
     axis -180 -30 -90   XYZ
    dof rx
    limits (-10.0 170.0)
  end
  begin
     id 20
     name lwrist
     direction 1 -4.48953e-011 1.17971e-026   
     length 1.84089   
     axis -7.69454e-015 90 90   XYZ
    dof ry
    limits (-180.0 0.0)
 end
  begin
     id 21 
     name lhand
     direction 1 -4.49027e-011 2.35802e-026   
     length 0.721479   
     axis -1.50533e-014 90 90   XYZ
    dof rx rz
    limits (-90.0 90.0)
           (-45.0 45.0)
  end
  begin
     id 22 
     name lfingers
     direction 1 -4.48915e-011 4.72027e-026   
     length 0.581675   
     axis -3.01059e-014 90 90   XYZ
    dof rx
    limits (0.0 90.0)
  end
  begin
     id 23
     name lthumb
     direction 0.707107 -6.34948e-011 0.707107   
     length 0.835172   
     axis -90 45 -5.12164e-014   XYZ
    dof rx rz
    limits (-45.0 45.0)
           (-45.0 45.0)
  end
  begin
     id 24 
     name rclavicle
     direction -0.882781 0.469197 0.0234974   
     length 3.95647  
     axis 0 0 0   XYZ 
    dof ry rz
    limits (-10.0 20.0)
           (-20.0 0.0)
  end
  begin
     id 25 
     name rhumerus
     direction -1 -4.48965e-011 -1.54906e-018  
     length 5.07905   
     axis -180 30 90   XYZ
    dof rx ry rz
    limits (-90.0 60.0)
           (-90.0 90.0)
           (-90.0 90.0)
  end
  begin
     id 26 
     name rradius
     direction -1 -4.48972e-011 5.47489e-027   
     length 3.54394   
     axis -180 30 90   XYZ
    dof rx
    limits (-10.0 170.0)
  end
  begin
     id 27 
     name rwrist
     direction -1 -4.48955e-011 1.17969e-026   
     length 1.77197   
     axis -7.69454e-015 -90 -90   XYZ
    dof ry
    limits (-180.0 0.0)
  end
  begin
     id 28
     name rhand
     direction -1 -4.48982e-011 2.35888e-026   
     length 0.681156   
     axis -1.50533e-014 -90 -90   XYZ
    dof rx rz
    limits (-90.0 90.0)
           (-45.0 45.0)
  end
  begin
     id 29
     name rfingers
     direction -1 -4.48955e-011 4.71877e-026   
     length 0.549165   
     axis -3.01059e-014 -90 -90   XYZ
    dof rx
    limits (0.0 90.0)
  end
  begin
     id 30
     name rthumb
     direction -0.707107 -6.3491e-011 0.707107   
     length 0.788495   
     axis -90 -45 5.12164e-014   XYZ
    dof rx rz
    limits (-45.0 45.0)
           (-45.0 45.0)
  end
:hierarchy
  begin
    root lhipjoint rhipjoint lowerback
    lhipjoint lfemur
    lfemur ltibia
    ltibia lfoot
    lfoot ltoes
    rhipjoint rfemur
    rfemur rtibia
    rtibia rfoot
    rfoot rtoes
    lowerback upperback
    upperback thorax
    thorax lowerneck lclavicle rclavicle
    lowerneck upperneck
    upperneck head
    lclavicle lhumerus
    lhumerus lradius
    lradius lwrist
    lwrist lhand lthumb
    lhand lfingers
    rclavicle rhumerus
    rhumerus rradius
    rradius rwrist
    rwrist rhand rthumb
    rhand rfingers
  end

#!OML:ASF H:\Bending\Project 1\Capture day 1\Session 1\Subject.ASF
:FULLY-SPECIFIED
:DEGREES
256
root -9.38764 17.967 -16.2837 167.603 90.991 161.842
lowerback 6.24129 0.954302 -0.171488
upperback -2.67289 1.38536 1.77196
thorax -6.34119 0.737825 1.78365
lowerneck -28.2432 -3.16022 -4.81413
upperneck 31.9942 -2.8157 2.18086
head 16.327 -1.2915 1.19609
rclavicle 5.41688e-015 2.78299e-015
rhumerus 8.44146 9.28526 -86.4677
rradius 61.1628
rwrist 2.06601
rhand -20.6827 -31.6424
rfingers 7.12502
rthumb 5.68074 -61.5462
lclavicle 5.41688e-015 2.78299e-015
lhumerus 12.9919 -17.4479 89.7111
lradius 56.8918
lwrist 41.8134
lhand -34.2778 17.1134
lfingers 7.12502
lthumb -7.44767 46.9623
rfemur 4.12374 6.57768 13.3403
rtibia -6.36111e-015
rfoot -6.27433 -17.218
rtoes -25.3726
lfemur -9.64189 -8.90092 -13.045
ltibia 23.1178
lfoot -23.319 19.0807
ltoes -38.9693
257
root -9.38451 17.9716 -16.2848 168.308 91.0975 162.42
lowerback 6.31537 1.02584 -0.254714
upperback -2.62802 1.47384 1.78578
thorax -6.342 0.784683 1.83364
lowerneck -28.4614 -3.16773 -4.63682
upperneck 32.1713 -2.79479 1.91106
head 16.4531 -1.30096 1.05246
rclavicle 2.73329e-016 -1.98785e-015
rhumerus 9.67902 8.84557 -86.3434
rradius 59.372
rwrist 2.0757
rhand -20.5573 -31.7502
rfingers 7.12502
rthumb 5.80174 -61.6508
lclavicle 2.73329e-016 -1.98785e-015
lhumerus 14.039 -17.4104 89.6889
lradius 55.6433
lwrist 41.458
lhand -34.2479 17.0753
lfingers 7.12502
lthumb -7.41887 46.9253
rfemur 3.96096 6.66878 13.3525
rtibia -1.59028e-014
rfoot -6.20262 -17.2675
rtoes -25.5232
lfemur -9.70706 -8.93681 -13.0158
ltibia 23.0628
lfoot -23.4132 19.1762
ltoes -38.7894
258
root -9.38116 17.9758 -16.2863 168.66 91.1874 162.65
lowerback 6.40782 1.06528 -0.3131
upperback -2.5799 1.51934 1.76963
thorax -6.34696 0.808423 1.84305
lowerneck -28.6828 -3.1476 -4.41066
upperneck 32.3001 -2.77308 1.67625
head 16.5561 -1.29902 0.914689
rclavicle 3.23025e-016 -3.97569e-015
rhumerus 10.9623 8.47736 -86.2947
rradius 57.5489
rwrist 2.12889
rhand -20.4652 -31.8486
rfingers 7.12502
rthumb 5.89066 -61.7467
lclavicle 3.23025e-016 -3.97569e-015
lhumerus 15.1293 -17.3123 89.5838
lradius 54.2558
lwrist 41.1032
lhand -34.3403 17.0954
lfingers 7.12502
lthumb -7.50807 46.9421
rfemur 3.81428 6.74309 13.3572
rtibia 4.77083e-015
rfoot -6.21109 -17.2943
rtoes -25.4401
lfemur -9.77217 -9.01284 -12.9865
ltibia 23.0111
lfoot -23.5314 19.2691
ltoes -38.4997
259
root -9.37766 17.9798 -16.2885 168.947 91.2582 162.808
lowerback 6.51638 1.05535 -0.346034
upperback -2.53468 1.4988 1.72097
thorax -6.36011 0.797693 1.81175
lowerneck -28.8232 -3.10696 -4.22504
upperneck 32.2962 -2.7702 1.59562
head 16.5796 -1.28736 0.846708
rclavicle -2.70347e-014 -1.82882e-014
rhumerus 12.2595 8.24952 -86.3516
rradius 55.808
rwrist 2.23859
rhand -20.4208 -31.9414
rfingers 7.12502
rthumb 5.93353 -61.8383
lclavicle -2.70347e-014 -1.82882e-014
lhumerus 16.2445 -17.0693 89.4032
lradius 52.7469
lwrist 40.8318
lhand -34.5099 17.1491
lfingers 7.12502
lthumb -7.67177 46.9899
rfemur 3.6691 6.79777 13.3487
rtibia 0
rfoot -6.27869 -17.3012
rtoes -25.1858
lfemur -9.85273 -9.12194 -12.9617
ltibia 22.9648
lfoot -23.6592 19.3602
ltoes -38.1416
260
root -9.37421 17.9839 -16.2913 169.332 91.3149 163.046
lowerback 6.63385 1.00111 -0.365195
upperback -2.49445 1.41884 1.65139
thorax -6.38054 0.756622 1.75795
lowerneck -28.8352 -3.06455 -4.15091
upperneck 32.1217 -2.80089 1.72142
head 16.4971 -1.27343 0.880784
rclavicle 2.98177e-015 9.54166e-015
rhumerus 13.5432 8.19566 -86.4738
rradius 54.2137
rwrist 2.3661
rhand -20.4215 -32.0372
rfingers 7.12502
rthumb 5.9329 -61.9342
lclavicle 2.98177e-015 9.54166e-015
lhumerus 17.3689 -16.6493 89.1965
lradius 51.1473
lwrist 40.6673
lhand -34.6773 17.1638
lfingers 7.12502
lthumb -7.83332 46.9987
rfemur 3.50955 6.83716 13.329
rtibia 1.59028e-015
rfoot -6.35411 -17.3014
rtoes -24.9152
lfemur -9.95966 -9.24684 -12.9423
ltibia 22.9255
lfoot -23.7781 19.4565
ltoes -37.7835
261
root -9.3711 17.9881 -16.2943 169.783 91.3638 163.333
lowerback 6.75293 0.925392 -0.386259
upperback -2.45589 1.30986 1.58014
thorax -6.40279 0.701358 1.7072
lowerneck -28.7274 -3.04044 -4.21626
upperneck 31.7936 -2.86785 2.02883
head 16.3213 -1.26563 1.00919
rclavicle 3.80176e-015 2.78299e-015
rhumerus 14.805 8.2871 -86.5807
rradius 52.7614
rwrist 2.45539
rhand -20.4464 -32.1396
rfingers 7.12502
rthumb 5.90885 -62.0372
lclavicle 3.80176e-015 2.78299e-015
lhumerus 18.4946 -16.0752 89.0366
lradius 49.4917
lwrist 40.5402
lhand -34.7494 17.0473
lfingers 7.12502
lthumb -7.90294 46.8796
rfemur 3.32567 6.86724 13.3082
rtibia -1.90833e-014
rfoot -6.36695 -17.3173
rtoes -24.8598
lfemur -10.0974 -9.36785 -12.9251
ltibia 22.8971
lfoot -23.8725 19.5649
ltoes -37.4882
262
root -9.3686 17.9925 -16.2971 170.087 91.4083 163.461
lowerback 6.86878 0.856547 -0.423603
upperback -2.41143 1.20971 1.52712
thorax -6.41825 0.651579 1.68392
lowerneck -28.5584 -3.04576 -4.39298
upperneck 31.3769 -2.95954 2.42494
head 16.0969 -1.2694 1.18754
rclavicle -6.5102e-015 -1.19271e-015
rhumerus 16.0578 8.43407 -86.601
rradius 51.3908
rwrist 2.47818
rhand -20.4662 -32.2493
rfingers 7.12502
rthumb 5.88972 -62.1475
lclavicle -6.5102e-015 -1.19271e-015
lhumerus 19.6238 -15.4004 88.9981
lradius 47.8083
lwrist 40.3046
lhand -34.6487 16.7305
lfingers 7.12502
lthumb -7.80574 46.5664
rfemur 3.11725 6.89112 13.3013
rtibia 1.27222e-014
rfoot -6.24929 -17.3713
rtoes -25.263
lfemur -10.2642 -9.47343 -12.9029
ltibia 22.886
lfoot -23.9344 19.6906
ltoes -37.2948
263
root -9.36691 17.9967 -16.2992 169.967 91.4476 163.162
lowerback 6.9817 0.814323 -0.482004
upperback -2.3539 1.1449 1.50248
thorax -6.4206 0.620694 1.69805
lowerneck -28.4129 -3.07741 -4.60099
upperneck 30.9648 -3.0554 2.77968
head 15.8836 -1.28523 1.3502
rclavicle 3.52843e-015 1.98785e-015
rhumerus 17.3224 8.51275 -86.5245
rradius 50.023
rwrist 2.46256
rhand -20.4506 -32.3518
rfingers 7.12502
rthumb 5.90484 -62.2496
lclavicle 3.52843e-015 1.98785e-015
lhumerus 20.7645 -14.6773 89.1314
lradius 46.1099
lwrist 39.8041
lhand -34.3429 16.1997
lfingers 7.12502
lthumb -7.51058 46.0464
rfemur 2.89315 6.90818 13.322
rtibia 6.36111e-015
rfoot -5.96427 -17.472
rtoes -26.2579
lfemur -10.4533 -9.56573 -12.8679
ltibia 22.8985
lfoot -23.9684 19.8347
ltoes -37.2044
264
root -9.36594 18.0006 -16.3002 169.202 91.4793 162.225
lowerback 7.0951 0.80192 -0.557234
upperback -2.28084 1.11989 1.50416
thorax -6.40909 0.610606 1.74433
lowerneck -28.3629 -3.11981 -4.74327
upperneck 30.6439 -3.13362 2.98004
head 15.7318 -1.30847 1.43846
rclavicle -2.0773e-014 -7.15625e-015
rhumerus 18.6072 8.40915 -86.4175
rradius 48.6004
rwrist 2.48972
rhand -20.3775 -32.4253
rfingers 7.12502
rthumb 5.97535 -62.3211
lclavicle -2.0773e-014 -7.15625e-015
lhumerus 21.9245 -13.9323 89.4532
lradius 44.393
lwrist 38.9541
lhand -33.8637 15.4965
lfingers 7.12502
lthumb -7.048 45.3591
rfemur 2.66657 6.91611 13.3765
rtibia -3.18055e-015
rfoot -5.5312 -17.6053
rtoes -27.7513
lfemur -10.6557 -9.65828 -12.8136
ltibia 22.9368
lfoot -23.9886 19.9941
ltoes -37.1866
265
root -9.36538 18.0042 -16.3 167.719 91.5025 160.581
lowerback 7.21253 0.807007 -0.639213
upperback -2.19677 1.1184 1.52013
thorax -6.38953 0.612582 1.80644
lowerneck -28.4342 -3.15114 -4.75427
upperneck 30.4592 -3.17818 2.98542
head 15.6626 -1.33018 1.42914
rclavicle 1.04859e-014 0
rhumerus 19.8975 8.05696 -86.4004
rradius 47.1106
rwrist 2.66296
rhand -20.2408 -32.4464
rfingers 7.12502
rthumb 6.10732 -62.3384
lclavicle 1.04859e-014 0
lhumerus 23.1042 -13.1617 89.9482
lradius 42.6472
lwrist 37.801
lhand -33.3031 14.6959
lfingers 7.12502
lthumb -6.50683 44.576
rfemur 2.44945 6.91331 13.4598
rtibia 1.11319e-014
rfoot -5.03442 -17.7379
rtoes -29.4091
lfemur -10.862 -9.76578 -12.7368
ltibia 22.9944
lfoot -24.0131 20.1581
ltoes -37.1884
